<svg width="42" height="42" viewBox="0 0 42 42" fill="none" xmlns="http://www.w3.org/2000/svg">
<g filter="url(#filter0_d_178_98)">
<circle cx="21" cy="19" r="17" fill="white"/>
</g>
<path d="M21 22.6957C23.0411 22.6957 24.6956 21.0411 24.6956 19C24.6956 16.9589 23.0411 15.3044 21 15.3044C18.9589 15.3044 17.3043 16.9589 17.3043 19C17.3043 21.0411 18.9589 22.6957 21 22.6957Z" stroke="#002936" stroke-width="2" stroke-miterlimit="10"/>
<path d="M25.0652 10.5H16.9348C14.4855 10.5 12.5 12.4855 12.5 14.9348V23.0652C12.5 25.5145 14.4855 27.5 16.9348 27.5H25.0652C27.5145 27.5 29.5 25.5145 29.5 23.0652V14.9348C29.5 12.4855 27.5145 10.5 25.0652 10.5Z" stroke="#002936" stroke-width="2" stroke-linecap="round" stroke-linejoin="round"/>
<path d="M25.8044 15.3044C26.4167 15.3044 26.9131 14.808 26.9131 14.1957C26.9131 13.5833 26.4167 13.087 25.8044 13.087C25.1921 13.087 24.6957 13.5833 24.6957 14.1957C24.6957 14.808 25.1921 15.3044 25.8044 15.3044Z" fill="#002936"/>
<defs>
<filter id="filter0_d_178_98" x="0" y="0" width="42" height="42" filterUnits="userSpaceOnUse" color-interpolation-filters="sRGB">
<feFlood flood-opacity="0" result="BackgroundImageFix"/>
<feColorMatrix in="SourceAlpha" type="matrix" values="0 0 0 0 0 0 0 0 0 0 0 0 0 0 0 0 0 0 127 0" result="hardAlpha"/>
<feOffset dy="2"/>
<feGaussianBlur stdDeviation="2"/>
<feComposite in2="hardAlpha" operator="out"/>
<feColorMatrix type="matrix" values="0 0 0 0 0 0 0 0 0 0 0 0 0 0 0 0 0 0 0.25 0"/>
<feBlend mode="normal" in2="BackgroundImageFix" result="effect1_dropShadow_178_98"/>
<feBlend mode="normal" in="SourceGraphic" in2="effect1_dropShadow_178_98" result="shape"/>
</filter>
</defs>
</svg>
