<svg width="42" height="42" viewBox="0 0 42 42" fill="none" xmlns="http://www.w3.org/2000/svg">
<g filter="url(#filter0_d_178_99)">
<circle cx="21" cy="19" r="17" fill="white"/>
</g>
<path d="M20.5143 17.1786V26.2857" stroke="#002936" stroke-width="2" stroke-linecap="round" stroke-linejoin="round"/>
<path d="M15.6571 17.1786V26.2857" stroke="#002936" stroke-width="2" stroke-linecap="round" stroke-linejoin="round"/>
<path d="M20.5143 21.1629C20.5143 20.1062 20.9237 19.0927 21.6523 18.3455C22.3811 17.5984 23.3694 17.1786 24.4 17.1786C25.4306 17.1786 26.4189 17.5984 27.1477 18.3455C27.8763 19.0927 28.2857 20.1062 28.2857 21.1629V26.2857" stroke="#002936" stroke-width="2" stroke-linecap="round" stroke-linejoin="round"/>
<path d="M15.1714 14.4464C15.9762 14.4464 16.6286 13.8348 16.6286 13.0804C16.6286 12.3259 15.9762 11.7143 15.1714 11.7143C14.3667 11.7143 13.7143 12.3259 13.7143 13.0804C13.7143 13.8348 14.3667 14.4464 15.1714 14.4464Z" fill="#002936"/>
<defs>
<filter id="filter0_d_178_99" x="0" y="0" width="42" height="42" filterUnits="userSpaceOnUse" color-interpolation-filters="sRGB">
<feFlood flood-opacity="0" result="BackgroundImageFix"/>
<feColorMatrix in="SourceAlpha" type="matrix" values="0 0 0 0 0 0 0 0 0 0 0 0 0 0 0 0 0 0 127 0" result="hardAlpha"/>
<feOffset dy="2"/>
<feGaussianBlur stdDeviation="2"/>
<feComposite in2="hardAlpha" operator="out"/>
<feColorMatrix type="matrix" values="0 0 0 0 0 0 0 0 0 0 0 0 0 0 0 0 0 0 0.25 0"/>
<feBlend mode="normal" in2="BackgroundImageFix" result="effect1_dropShadow_178_99"/>
<feBlend mode="normal" in="SourceGraphic" in2="effect1_dropShadow_178_99" result="shape"/>
</filter>
</defs>
</svg>
